<?xml version="1.0" encoding="utf-8"?>
<!-- Generator: Adobe Illustrator 24.3.0, SVG Export Plug-In . SVG Version: 6.00 Build 0)  -->
<svg version="1.1" id="Ebene_1" xmlns="http://www.w3.org/2000/svg" xmlns:xlink="http://www.w3.org/1999/xlink" x="0px" y="0px"
	 viewBox="0 0 380 184" style="enable-background:new 0 0 380 184;" xml:space="preserve">
<style type="text/css">
	.st0{opacity:0.3;}
	.st1{fill-rule:evenodd;clip-rule:evenodd;fill:#F2F3F5;}
</style>
<g class="st0">
	<path class="st1" d="M134.8,172.9c0-5.6,5.5-10.2,12.3-10.2h123.3c6.8,0,12.3,4.6,12.3,10.2c0,5.6-5.5,10.2-12.3,10.2H147
		C140.3,183.1,134.8,178.5,134.8,172.9 M341.2,134c0-5.6,5.5-10.2,12.3-10.2h13.9c6.8,0,12.3,4.6,12.3,10.2
		c0,5.6-5.5,10.2-12.3,10.2h-13.9C346.7,144.2,341.2,139.6,341.2,134 M99.1,172.9c0-5.6,4.6-10.2,10.2-10.2s10.2,4.6,10.2,10.2
		c0,5.6-4.6,10.2-10.2,10.2S99.1,178.5,99.1,172.9 M34.8,93c0-5.6,5.5-10.2,12.3-10.2H61c6.8,0,12.3,4.6,12.3,10.2
		s-5.5,10.2-12.3,10.2H47.1C40.3,103.2,34.8,98.6,34.8,93"/>
	<path class="st1" d="M12.7,21.3H111c6.8,0,12.3,4.6,12.3,10.2s-5.5,10.2-12.3,10.2h-5.3c-6.8,0-12.3,4.6-12.3,10.2
		s5.5,10.2,12.3,10.2h66.8c6.8,0,12.3,4.6,12.3,10.2s-5.5,10.2-12.3,10.2H92.2c-6.8,0-12.3,4.6-12.3,10.2s5.5,10.2,12.3,10.2h104
		c6.8,0,12.3,4.6,12.3,10.2s-5.5,10.2-12.3,10.2h-86c-6.8,0-12.3,4.6-12.3,10.2c0,5.6,5.5,10.2,12.3,10.2H319
		c6.8,0,12.3-4.6,12.3-10.2c0-5.6-5.5-10.2-12.3-10.2h-78.2c-6.8,0-12.3-4.6-12.3-10.2s5.5-10.2,12.3-10.2h29.5
		c6.8,0,12.3-4.6,12.3-10.2s-5.5-10.2-12.3-10.2h0.4c-6.8,0-12.3-4.6-12.3-10.2s5.5-10.2,12.3-10.2h93c6.8,0,12.3-4.6,12.3-10.2
		s-5.5-10.2-12.3-10.2h-161c-6.8,0-12.3-4.6-12.3-10.2s5.5-10.2,12.3-10.2h18.8c6.8,0,12.3-4.6,12.3-10.2s-5.5-10.2-12.3-10.2H12.7
		C5.9,0.8,0.4,5.5,0.4,11.1S5.9,21.3,12.7,21.3"/>
</g>
</svg>
