<?xml version="1.0" encoding="utf-8"?>
<!-- Generator: Adobe Illustrator 24.3.0, SVG Export Plug-In . SVG Version: 6.00 Build 0)  -->
<svg version="1.1" id="Ebene_1" xmlns="http://www.w3.org/2000/svg" xmlns:xlink="http://www.w3.org/1999/xlink" x="0px" y="0px"
	 viewBox="0 0 475 228" style="enable-background:new 0 0 475 228;" xml:space="preserve">
<style type="text/css">
	.st0{opacity:0.3;}
	.st1{fill-rule:evenodd;clip-rule:evenodd;fill:#F2F3F5;}
</style>
<g class="st0">
	<path class="st1" d="M167.9,13c0,7,6.9,12.8,15.4,12.8h154.1c8.4,0,15.4-5.8,15.4-12.8s-6.9-12.8-15.4-12.8H183.3
		C174.8,0.2,167.9,5.9,167.9,13 M426,61.6c0,7,6.9,12.8,15.4,12.8h17.4c8.4,0,15.4-5.8,15.4-12.8c0-7-6.9-12.8-15.4-12.8h-17.4
		C432.9,48.8,426,54.6,426,61.6 M123.4,13c0,7,5.8,12.8,12.8,12.8c7,0,12.8-5.8,12.8-12.8s-5.8-12.8-12.8-12.8
		C129.2,0.2,123.4,5.9,123.4,13 M43,112.8c0,7,6.9,12.8,15.4,12.8h17.4c8.4,0,15.4-5.8,15.4-12.8S84.2,100,75.8,100H58.4
		C49.9,100,43,105.8,43,112.8"/>
	<path class="st1" d="M15.4,202.4h122.9c8.4,0,15.4-5.8,15.4-12.8c0-7-6.9-12.8-15.4-12.8h-6.7c-8.4,0-15.4-5.8-15.4-12.8
		c0-7,6.9-12.8,15.4-12.8H215c8.4,0,15.4-5.8,15.4-12.8c0-7-6.9-12.8-15.4-12.8H114.7c-8.4,0-15.4-5.8-15.4-12.8s6.9-12.8,15.4-12.8
		h130c8.4,0,15.4-5.8,15.4-12.8s-6.9-12.8-15.4-12.8H137.2c-8.4,0-15.4-5.8-15.4-12.8c0-7,6.9-12.8,15.4-12.8h261.1
		c8.4,0,15.4,5.8,15.4,12.8c0,7-6.9,12.8-15.4,12.8h-97.8c-8.4,0-15.4,5.8-15.4,12.8s6.9,12.8,15.4,12.8h36.9
		c8.4,0,15.4,5.8,15.4,12.8s-6.9,12.8-15.4,12.8h0.5c-8.4,0-15.4,5.8-15.4,12.8c0,7,6.9,12.8,15.4,12.8h116.2
		c8.4,0,15.4,5.8,15.4,12.8c0,7-6.9,12.8-15.4,12.8H252.9c-8.4,0-15.4,5.8-15.4,12.8c0,7,6.9,12.8,15.4,12.8h23.6
		c8.4,0,15.4,5.8,15.4,12.8c0,7-6.9,12.8-15.4,12.8H15.4C6.9,228,0,222.2,0,215.2C0,208.2,6.9,202.4,15.4,202.4"/>
</g>
</svg>
