<?xml version="1.0" encoding="utf-8"?>
<!-- Generator: Adobe Illustrator 24.3.0, SVG Export Plug-In . SVG Version: 6.00 Build 0)  -->
<svg version="1.1" id="Ebene_1" xmlns="http://www.w3.org/2000/svg" xmlns:xlink="http://www.w3.org/1999/xlink" x="0px" y="0px"
	 viewBox="0 0 475 229" style="enable-background:new 0 0 475 229;" xml:space="preserve">
<style type="text/css">
	.st0{fill-rule:evenodd;clip-rule:evenodd;fill:#0094FF;}
</style>
<g>
	<path class="st0" d="M306.6,13.4c0,7-6.9,12.8-15.4,12.8H137.1c-8.4,0-15.4-5.8-15.4-12.8s6.9-12.8,15.4-12.8h154.1
		C299.7,0.6,306.6,6.3,306.6,13.4 M48.6,62c0,7-6.9,12.8-15.4,12.8H15.8C7.4,74.8,0.4,69.1,0.4,62c0-7,6.9-12.8,15.4-12.8h17.4
		C41.7,49.2,48.6,55,48.6,62 M351.2,13.4c0,7-5.8,12.8-12.8,12.8s-12.8-5.8-12.8-12.8s5.8-12.8,12.8-12.8S351.2,6.3,351.2,13.4
		 M431.5,113.2c0,7-6.9,12.8-15.4,12.8h-17.4c-8.4,0-15.4-5.8-15.4-12.8s6.9-12.8,15.4-12.8h17.4
		C424.6,100.4,431.5,106.2,431.5,113.2"/>
	<path class="st0" d="M459.2,202.8H336.3c-8.4,0-15.4-5.8-15.4-12.8c0-7,6.9-12.8,15.4-12.8h6.7c8.4,0,15.4-5.8,15.4-12.8
		s-6.9-12.8-15.4-12.8h-83.5c-8.4,0-15.4-5.8-15.4-12.8c0-7,6.9-12.8,15.4-12.8h100.4c8.4,0,15.4-5.8,15.4-12.8
		c0-7-6.9-12.8-15.4-12.8h-130c-8.4,0-15.4-5.8-15.4-12.8s6.9-12.8,15.4-12.8h107.5c8.4,0,15.4-5.8,15.4-12.8
		c0-7-6.9-12.8-15.4-12.8H76.2c-8.4,0-15.4,5.8-15.4,12.8c0,7,6.9,12.8,15.4,12.8H174c8.4,0,15.4,5.8,15.4,12.8s-6.9,12.8-15.4,12.8
		h-36.9c-8.4,0-15.4,5.8-15.4,12.8c0,7,6.9,12.8,15.4,12.8h-0.5c8.4,0,15.4,5.8,15.4,12.8c0,7-6.9,12.8-15.4,12.8H20.4
		c-8.4,0-15.4,5.8-15.4,12.8s6.9,12.8,15.4,12.8h201.2c8.4,0,15.4,5.8,15.4,12.8c0,7-6.9,12.8-15.4,12.8h-23.6
		c-8.4,0-15.4,5.8-15.4,12.8c0,7,6.9,12.8,15.4,12.8h261.1c8.4,0,15.4-5.8,15.4-12.8C474.6,208.6,467.6,202.8,459.2,202.8"/>
</g>
</svg>
