<?xml version="1.0" encoding="utf-8"?>
<!-- Generator: Adobe Illustrator 24.3.0, SVG Export Plug-In . SVG Version: 6.00 Build 0)  -->
<svg version="1.1" id="Ebene_1" xmlns="http://www.w3.org/2000/svg" xmlns:xlink="http://www.w3.org/1999/xlink" x="0px" y="0px"
	 viewBox="0 0 475 229" style="enable-background:new 0 0 475 229;" xml:space="preserve">
<style type="text/css">
	.st0{fill-rule:evenodd;clip-rule:evenodd;fill:#0094FF;}
</style>
<g>
	<path class="st0" d="M48.6,167c0-7-6.9-12.8-15.4-12.8H15.8c-8.4,0-15.4,5.8-15.4,12.8c0,7,6.9,12.8,15.4,12.8h17.4
		C41.7,179.8,48.6,174,48.6,167 M351.2,215.6c0-7-5.8-12.8-12.8-12.8s-12.8,5.8-12.8,12.8c0,7,5.8,12.8,12.8,12.8
		S351.2,222.7,351.2,215.6 M431.5,115.8c0-7-6.9-12.8-15.4-12.8h-17.4c-8.4,0-15.4,5.8-15.4,12.8s6.9,12.8,15.4,12.8h17.4
		C424.6,128.6,431.5,122.8,431.5,115.8"/>
	<path class="st0" d="M459.2,26.2H336.3c-8.4,0-15.4,5.8-15.4,12.8c0,7,6.9,12.8,15.4,12.8h6.7c8.4,0,15.4,5.8,15.4,12.8
		s-6.9,12.8-15.4,12.8h-83.5c-8.4,0-15.4,5.8-15.4,12.8s6.9,12.8,15.4,12.8h100.4c8.4,0,15.4,5.8,15.4,12.8s-6.9,12.8-15.4,12.8
		h-130c-8.4,0-15.4,5.8-15.4,12.8c0,7,6.9,12.8,15.4,12.8h107.5c8.4,0,15.4,5.8,15.4,12.8c0,7-6.9,12.8-15.4,12.8H76.2
		c-8.4,0-15.4-5.8-15.4-12.8c0-7,6.9-12.8,15.4-12.8H174c8.4,0,15.4-5.8,15.4-12.8c0-7-6.9-12.8-15.4-12.8h-36.9
		c-8.4,0-15.4-5.8-15.4-12.8s6.9-12.8,15.4-12.8h-0.5c8.4,0,15.4-5.8,15.4-12.8s-6.9-12.8-15.4-12.8H20.4c-8.4,0-15.4-5.8-15.4-12.8
		S12,51.8,20.4,51.8h201.2c8.4,0,15.4-5.8,15.4-12.8c0-7-6.9-12.8-15.4-12.8h-23.6c-8.4,0-15.4-5.8-15.4-12.8s6.9-12.8,15.4-12.8
		h261.1c8.4,0,15.4,5.8,15.4,12.8S467.6,26.2,459.2,26.2 M306.6,215.6c0-7-6.9-12.8-15.4-12.8H137.1c-8.4,0-15.4,5.8-15.4,12.8
		c0,7,6.9,12.8,15.4,12.8h154.1C299.7,228.4,306.6,222.7,306.6,215.6"/>
</g>
</svg>
