<?xml version="1.0" encoding="utf-8"?>
<!-- Generator: Adobe Illustrator 24.3.0, SVG Export Plug-In . SVG Version: 6.00 Build 0)  -->
<svg version="1.1" id="Ebene_1" xmlns="http://www.w3.org/2000/svg" xmlns:xlink="http://www.w3.org/1999/xlink" x="0px" y="0px"
	 viewBox="0 0 545 545" style="enable-background:new 0 0 545 545;" xml:space="preserve">
<style type="text/css">
	.st0{clip-path:url(#SVGID_2_);}
	.st1{clip-path:url(#SVGID_4_);fill:#3AAA35;}
	.st2{clip-path:url(#SVGID_6_);fill:none;stroke:#000000;stroke-width:4.327;stroke-miterlimit:10;}
	.st3{clip-path:url(#SVGID_8_);fill:#95C11F;}
	.st4{clip-path:url(#SVGID_10_);fill:none;stroke:#000000;stroke-width:4.327;stroke-miterlimit:10;}
	.st5{clip-path:url(#SVGID_12_);fill:#36A9E1;}
	.st6{clip-path:url(#SVGID_14_);fill:none;stroke:#000000;stroke-width:4.327;stroke-miterlimit:10;}
	.st7{clip-path:url(#SVGID_16_);fill:#B7E1F9;}
	.st8{clip-path:url(#SVGID_18_);fill:none;stroke:#000000;stroke-width:4.327;stroke-miterlimit:10;}
	.st9{clip-path:url(#SVGID_20_);fill:#EA5B0C;}
	.st10{clip-path:url(#SVGID_22_);fill:none;stroke:#000000;stroke-width:4.327;stroke-miterlimit:10;}
	.st11{clip-path:url(#SVGID_24_);fill:#FABC75;}
	.st12{clip-path:url(#SVGID_26_);fill:none;stroke:#000000;stroke-width:4.327;stroke-miterlimit:10;}
</style>
<g id="Bildmaterial_2_00000072973151793563345720000017536066475359609508_">
	<g>
		<g>
			<defs>
				<rect id="SVGID_1_" x="6.3" y="48.8" width="532.4" height="447.4"/>
			</defs>
			<clipPath id="SVGID_2_">
				<use xlink:href="#SVGID_1_"  style="overflow:visible;"/>
			</clipPath>
			<g class="st0">
				<g>
					<defs>
						<rect id="SVGID_3_" x="6.3" y="48.8" width="532.4" height="447.4"/>
					</defs>
					<clipPath id="SVGID_4_">
						<use xlink:href="#SVGID_3_"  style="overflow:visible;"/>
					</clipPath>
					<path class="st1" d="M512.9,276.9l22.1-1.6l-3.8-45l0-0.2l-22.1,1.6c-1.9-5.1-4.4-10-7.3-14.6l18-20.3l-35.3-28.9l-0.7-0.5
						l-16.3,18.3c-7.7-4-16.1-6.9-24.8-8.5l-1.8-21.3l-46.9,3.5l1.8,21.2c-6.9,2.4-13.3,5.6-19.2,9.4L355.7,173L337,194l-11.8,13.3
						l20.8,17.1c-3,6.2-5.3,12.9-6.6,19.8l-22.1,1.6l3.8,45.2l22-1.6c2.5,6.6,5.9,12.9,9.9,18.6l-17.7,19.9l35.9,29.5l17.7-19.9
						c5,2.3,10.2,4.1,15.6,5.4c1.6,0.4,3.3,0.8,5,1.1l1.8,21.2l46.9-3.4l-1.8-21.2c6.9-2.4,13.3-5.6,19.3-9.4l6.8,5.6l9.7,8l0.5-0.6
						l30-33.8l-16.6-13.6C509.3,290.4,511.5,283.8,512.9,276.9 M429.6,301.4c-2,0.1-4.1,0.1-6.1,0c-20.8-1.3-38-17.1-39.8-37.7
						c-1.9-22.5,15.5-42.2,38.9-43.9c12.6-0.9,24.4,3.6,32.9,11.4c7.2,6.7,12.1,15.9,13,26.3C470.4,280,453,299.6,429.6,301.4"/>
				</g>
				<g>
					<defs>
						<rect id="SVGID_5_" x="6.3" y="48.8" width="532.4" height="447.4"/>
					</defs>
					<clipPath id="SVGID_6_">
						<use xlink:href="#SVGID_5_"  style="overflow:visible;"/>
					</clipPath>
					<path class="st2" d="M512.9,276.9l22.1-1.6l-3.8-45l0-0.2l-22.1,1.6c-1.9-5.1-4.4-10-7.3-14.6l18-20.3l-35.3-28.9l-0.7-0.5
						l-16.3,18.3c-7.7-4-16.1-6.9-24.8-8.5l-1.8-21.3l-46.9,3.5l1.8,21.2c-6.9,2.4-13.3,5.6-19.2,9.4L355.7,173L337,194l-11.8,13.3
						l20.8,17.1c-3,6.2-5.3,12.9-6.6,19.8l-22.1,1.6l3.8,45.2l22-1.6c2.5,6.6,5.9,12.9,9.9,18.6l-17.7,19.9l35.9,29.5l17.7-19.9
						c5,2.3,10.2,4.1,15.6,5.4c1.6,0.4,3.3,0.8,5,1.1l1.8,21.2l46.9-3.4l-1.8-21.2c6.9-2.4,13.3-5.6,19.3-9.4l6.8,5.6l9.7,8l0.5-0.6
						l30-33.8l-16.6-13.6C509.3,290.4,511.5,283.8,512.9,276.9z M429.6,301.4c-2,0.1-4.1,0.1-6.1,0c-20.8-1.3-38-17.1-39.8-37.7
						c-1.9-22.5,15.5-42.2,38.9-43.9c12.6-0.9,24.4,3.6,32.9,11.4c7.2,6.7,12.1,15.9,13,26.3C470.4,280,453,299.6,429.6,301.4z"/>
				</g>
				<g>
					<defs>
						<rect id="SVGID_7_" x="6.3" y="48.8" width="532.4" height="447.4"/>
					</defs>
					<clipPath id="SVGID_8_">
						<use xlink:href="#SVGID_7_"  style="overflow:visible;"/>
					</clipPath>
					<path class="st3" d="M531.1,230.3l-48.5,106.4l-6.8-5.6c-5.9,3.8-12.4,7-19.3,9.4l1.8,21.2l-47,3.5l-1.8-21.2
						c-1.7-0.3-3.3-0.7-5-1.1l18.9-41.5c2,0.1,4,0.1,6.1,0c23.4-1.7,40.8-21.4,38.9-43.9c-0.9-10.4-5.7-19.5-13-26.2l28.9-63.3
						l35.3,28.9L501.7,217c2.9,4.6,5.4,9.5,7.3,14.7l22.1-1.6L531.1,230.3z"/>
				</g>
				<g>
					<defs>
						<rect id="SVGID_9_" x="6.3" y="48.8" width="532.4" height="447.4"/>
					</defs>
					<clipPath id="SVGID_10_">
						<use xlink:href="#SVGID_9_"  style="overflow:visible;"/>
					</clipPath>
					<path class="st4" d="M512.9,276.9l22.1-1.6l-3.8-45l0-0.2l-22.1,1.6c-1.9-5.1-4.4-10-7.3-14.6l18-20.3l-35.3-28.9l-0.7-0.5
						l-16.3,18.3c-7.7-4-16.1-6.9-24.8-8.5l-1.8-21.3l-46.9,3.5l1.8,21.2c-6.9,2.4-13.3,5.6-19.2,9.4L355.7,173L337,194l-11.8,13.3
						l20.8,17.1c-3,6.2-5.3,12.9-6.6,19.8l-22.1,1.6l3.8,45.2l22-1.6c2.5,6.6,5.9,12.9,9.9,18.6l-17.7,19.9l35.9,29.5l17.7-19.9
						c5,2.3,10.2,4.1,15.6,5.4c1.6,0.4,3.3,0.8,5,1.1l1.8,21.2l46.9-3.4l-1.8-21.2c6.9-2.4,13.3-5.6,19.3-9.4l6.8,5.6l9.7,8l0.5-0.6
						l30-33.8l-16.6-13.6C509.3,290.4,511.5,283.8,512.9,276.9z M429.6,301.4c-2,0.1-4.1,0.1-6.1,0c-20.8-1.3-38-17.1-39.8-37.7
						c-1.9-22.5,15.5-42.2,38.9-43.9c12.6-0.9,24.4,3.6,32.9,11.4c7.2,6.7,12.1,15.9,13,26.3C470.4,280,453,299.6,429.6,301.4z"/>
				</g>
				<g>
					<defs>
						<rect id="SVGID_11_" x="6.3" y="48.8" width="532.4" height="447.4"/>
					</defs>
					<clipPath id="SVGID_12_">
						<use xlink:href="#SVGID_11_"  style="overflow:visible;"/>
					</clipPath>
					<path class="st5" d="M388,414.4l16.5-7.7l-7.9-16.6l-5.3-11.1l-15,7c-3.5-4.5-7.8-8.5-12.6-11.9l4.9-13.5l-8.3-3l-21-7.4
						l-4.9,13.5c-4.8-0.4-9.6-0.1-14.3,0.7l-7.7-16l-28.1,13l7.7,16.1c-3.6,3-6.8,6.5-9.6,10.4l-13.8-4.9l-10.5,28.8l13.8,4.9
						c-0.4,4.7-0.1,9.5,0.7,14l-16.3,7.6l13.3,27.6l16.3-7.6c3.1,3.5,6.6,6.7,10.6,9.4l-4.9,13.5l12.5,4.4l16.8,5.9l4.9-13.5
						c4.9,0.4,9.6,0.1,14.3-0.7l6.1,12.7l8-3.7l20.1-9.3l-6.1-12.7c3.6-3,6.8-6.5,9.6-10.4l13.8,4.9l10.5-28.8l-13.8-4.9
						C388.6,421.6,388.5,418,388,414.4 M321,447.2c-0.1,0-0.2-0.1-0.4-0.1c-14.6-5.1-22.2-21-17-35.3c5.2-14.4,21.3-21.8,35.9-16.6
						c1.3,0.4,2.5,0.9,3.6,1.6c12.2,6.3,18.1,20.6,13.4,33.7C351.3,444.6,335.5,452.1,321,447.2"/>
				</g>
				<g>
					<defs>
						<rect id="SVGID_13_" x="6.3" y="48.8" width="532.4" height="447.4"/>
					</defs>
					<clipPath id="SVGID_14_">
						<use xlink:href="#SVGID_13_"  style="overflow:visible;"/>
					</clipPath>
					<path class="st6" d="M388,414.4l16.5-7.7l-7.9-16.6l-5.3-11.1l-15,7c-3.5-4.5-7.8-8.5-12.6-11.9l4.9-13.5l-8.3-3l-21-7.4
						l-4.9,13.5c-4.8-0.4-9.6-0.1-14.3,0.7l-7.7-16l-28.1,13l7.7,16.1c-3.6,3-6.8,6.5-9.6,10.4l-13.8-4.9l-10.5,28.8l13.8,4.9
						c-0.4,4.7-0.1,9.5,0.7,14l-16.3,7.6l13.3,27.6l16.3-7.6c3.1,3.5,6.6,6.7,10.6,9.4l-4.9,13.5l12.5,4.4l16.8,5.9l4.9-13.5
						c4.9,0.4,9.6,0.1,14.3-0.7l6.1,12.7l8-3.7l20.1-9.3l-6.1-12.7c3.6-3,6.8-6.5,9.6-10.4l13.8,4.9l10.5-28.8l-13.8-4.9
						C388.6,421.6,388.5,418,388,414.4z M321,447.2c-0.1,0-0.2-0.1-0.4-0.1c-14.6-5.1-22.2-21-17-35.3c5.2-14.4,21.3-21.8,35.9-16.6
						c1.3,0.4,2.5,0.9,3.6,1.6c12.2,6.3,18.1,20.6,13.4,33.7C351.3,444.6,335.5,452.1,321,447.2z"/>
				</g>
				<g>
					<defs>
						<rect id="SVGID_15_" x="6.3" y="48.8" width="532.4" height="447.4"/>
					</defs>
					<clipPath id="SVGID_16_">
						<use xlink:href="#SVGID_15_"  style="overflow:visible;"/>
					</clipPath>
					<path class="st7" d="M396.6,390.1l-42.4,96.5l-8,3.7l-6.1-12.7c-4.7,0.8-9.5,1-14.3,0.7l-4.9,13.5l-16.8-5.9l17-38.7
						c14.5,4.9,30.4-2.6,35.5-16.8c4.8-13.1-1.1-27.4-13.3-33.7l17.1-38.9l8.3,2.9l-4.9,13.5c4.8,3.4,9,7.3,12.6,11.9l15-7
						L396.6,390.1z"/>
				</g>
				<g>
					<defs>
						<rect id="SVGID_17_" x="6.3" y="48.8" width="532.4" height="447.4"/>
					</defs>
					<clipPath id="SVGID_18_">
						<use xlink:href="#SVGID_17_"  style="overflow:visible;"/>
					</clipPath>
					<path class="st8" d="M388,414.4l16.5-7.7l-7.9-16.6l-5.3-11.1l-15,7c-3.5-4.5-7.8-8.5-12.6-11.9l4.9-13.5l-8.3-3l-21-7.4
						l-4.9,13.5c-4.8-0.4-9.6-0.1-14.3,0.7l-7.7-16l-28.1,13l7.7,16.1c-3.6,3-6.8,6.5-9.6,10.4l-13.8-4.9l-10.5,28.8l13.8,4.9
						c-0.4,4.7-0.1,9.5,0.7,14l-16.3,7.6l13.3,27.6l16.3-7.6c3.1,3.5,6.6,6.7,10.6,9.4l-4.9,13.5l12.5,4.4l16.8,5.9l4.9-13.5
						c4.9,0.4,9.6,0.1,14.3-0.7l6.1,12.7l8-3.7l20.1-9.3l-6.1-12.7c3.6-3,6.8-6.5,9.6-10.4l13.8,4.9l10.5-28.8l-13.8-4.9
						C388.6,421.6,388.5,418,388,414.4z M321,447.2c-0.1,0-0.2-0.1-0.4-0.1c-14.6-5.1-22.2-21-17-35.3c5.2-14.4,21.3-21.8,35.9-16.6
						c1.3,0.4,2.5,0.9,3.6,1.6c12.2,6.3,18.1,20.6,13.4,33.7C351.3,444.6,335.5,452.1,321,447.2z"/>
				</g>
				<g>
					<defs>
						<rect id="SVGID_19_" x="6.3" y="48.8" width="532.4" height="447.4"/>
					</defs>
					<clipPath id="SVGID_20_">
						<use xlink:href="#SVGID_19_"  style="overflow:visible;"/>
					</clipPath>
					<path class="st9" d="M313.1,234l0.1-65.3l-10.7,0l-20.6,0c-2.1-7.6-4.9-14.9-8.5-21.9l27.8-27.1l-47-46.2l-11.4,11.1L229,98
						c-10.3-6.5-21.8-11.6-33.9-14.9l0.1-30.6l-66.5-0.2L128.5,83c-10,2.7-19.5,6.5-28.3,11.4L73,67.6l-47.2,46L53,140.4
						c-5,8.6-9,17.9-11.8,27.6l-31.3,0l-0.2,65.2l31.3,0.1c2.7,9.8,6.7,19.1,11.7,27.7l-27.3,26.7l47,46.2l27.3-26.7
						c8.8,4.9,18.2,8.8,28.2,11.5l-0.1,30.7h0.2l66.4,0.2l0.1-30.7c10-2.7,19.5-6.6,28.3-11.4l13.7,13.4l8,7.9l47.2-46L270,261.5
						c5-8.6,9-17.9,11.8-27.7L313.1,234z M167,259.6c-1.8,0.2-3.7,0.2-5.6,0.3c-33.2,0-60.1-26.5-60-59c0.1-32.6,27-58.8,60.2-58.8
						c18.9,0,35.8,8.6,46.7,22.1c8.4,10.1,13.3,23,13.2,37C221.5,231.8,197.6,256.9,167,259.6"/>
				</g>
				<g>
					<defs>
						<rect id="SVGID_21_" x="6.3" y="48.8" width="532.4" height="447.4"/>
					</defs>
					<clipPath id="SVGID_22_">
						<use xlink:href="#SVGID_21_"  style="overflow:visible;"/>
					</clipPath>
					<path class="st10" d="M313.1,234l0.1-65.3l-10.7,0l-20.6,0c-2.1-7.6-4.9-14.9-8.5-21.9l27.8-27.1l-47-46.2l-11.4,11.1L229,98
						c-10.3-6.5-21.8-11.6-33.9-14.9l0.1-30.6l-66.5-0.2L128.5,83c-10,2.7-19.5,6.5-28.3,11.4L73,67.6l-47.2,46L53,140.4
						c-5,8.6-9,17.9-11.8,27.6l-31.3,0l-0.2,65.2l31.3,0.1c2.7,9.8,6.7,19.1,11.7,27.7l-27.3,26.7l47,46.2l27.3-26.7
						c8.8,4.9,18.2,8.8,28.2,11.5l-0.1,30.7h0.2l66.4,0.2l0.1-30.7c10-2.7,19.5-6.6,28.3-11.4l13.7,13.4l8,7.9l47.2-46L270,261.5
						c5-8.6,9-17.9,11.8-27.7L313.1,234z M167,259.6c-1.8,0.2-3.7,0.2-5.6,0.3c-33.2,0-60.1-26.5-60-59c0.1-32.6,27-58.8,60.2-58.8
						c18.9,0,35.8,8.6,46.7,22.1c8.4,10.1,13.3,23,13.2,37C221.5,231.8,197.6,256.9,167,259.6z"/>
				</g>
				<g>
					<defs>
						<rect id="SVGID_23_" x="6.3" y="48.8" width="532.4" height="447.4"/>
					</defs>
					<clipPath id="SVGID_24_">
						<use xlink:href="#SVGID_23_"  style="overflow:visible;"/>
					</clipPath>
					<path class="st11" d="M302.5,168.6l-66,152.4l-13.7-13.4c-8.8,4.9-18.3,8.7-28.3,11.4l-0.1,30.7l-66.4-0.2l38.9-89.9
						c30.5-2.7,54.5-27.8,54.6-58.5c0-14-4.9-26.9-13.2-37l34.5-79.6l11.4-11.1l47,46.2l-27.8,27.1c3.6,6.9,6.4,14.3,8.5,21.9
						L302.5,168.6z"/>
				</g>
				<g>
					<defs>
						<rect id="SVGID_25_" x="6.3" y="48.8" width="532.4" height="447.4"/>
					</defs>
					<clipPath id="SVGID_26_">
						<use xlink:href="#SVGID_25_"  style="overflow:visible;"/>
					</clipPath>
					<path class="st12" d="M313.1,234l0.1-65.3l-10.7,0l-20.6,0c-2.1-7.6-4.9-14.9-8.5-21.9l27.8-27.1l-47-46.2l-11.4,11.1L229,98
						c-10.3-6.5-21.8-11.6-33.9-14.9l0.1-30.6l-66.5-0.2L128.5,83c-10,2.7-19.5,6.5-28.3,11.4L73,67.6l-47.2,46L53,140.4
						c-5,8.6-9,17.9-11.8,27.6l-31.3,0l-0.2,65.2l31.3,0.1c2.7,9.8,6.7,19.1,11.7,27.7l-27.3,26.7l47,46.2l27.3-26.7
						c8.8,4.9,18.2,8.8,28.2,11.5l-0.1,30.7h0.2l66.4,0.2l0.1-30.7c10-2.7,19.5-6.6,28.3-11.4l13.7,13.4l8,7.9l47.2-46L270,261.5
						c5-8.6,9-17.9,11.8-27.7L313.1,234z M167,259.6c-1.8,0.2-3.7,0.2-5.6,0.3c-33.2,0-60.1-26.5-60-59c0.1-32.6,27-58.8,60.2-58.8
						c18.9,0,35.8,8.6,46.7,22.1c8.4,10.1,13.3,23,13.2,37C221.5,231.8,197.6,256.9,167,259.6z"/>
				</g>
			</g>
		</g>
	</g>
</g>
</svg>
